<svg width="182" height="48" viewBox="0 0 182 48" fill="none" xmlns="http://www.w3.org/2000/svg">
<path d="M11.4662 44.6081C9.52027 44.6081 7.73649 44.1419 6.11487 43.2095C4.49324 42.2365 3.19595 40.9595 2.22297 39.3784C1.29054 37.7568 0.824324 35.9527 0.824324 33.9662V29.1014H9.88514V34.2703C9.88514 34.6757 10.027 35.0608 10.3108 35.4257C10.6351 35.75 11.0203 35.9122 11.4662 35.9122C11.9122 35.9122 12.2973 35.75 12.6216 35.4257C12.9459 35.0608 13.1081 34.6757 13.1081 34.2703C13.1081 33.9054 13.0676 33.6014 12.9865 33.3581C12.9054 33.0743 12.723 32.7095 12.4392 32.2635L5.14189 20.3446C4.61487 19.4527 4.00676 18.5203 3.31757 17.5473C2.62838 16.5338 2.04054 15.5405 1.55405 14.5676C1.06757 13.5541 0.824324 12.6014 0.824324 11.7095V11.4662C0.824324 9.47973 1.29054 7.69594 2.22297 6.11486C3.19595 4.49324 4.49324 3.21621 6.11487 2.28378C7.73649 1.31081 9.52027 0.824323 11.4662 0.824323C13.4527 0.824323 15.2365 1.31081 16.8176 2.28378C18.4392 3.21621 19.7162 4.49324 20.6486 6.11486C21.6216 7.69594 22.1081 9.47973 22.1081 11.4662V15.7838H13.1081V11.1014C13.1081 10.6554 12.9459 10.2703 12.6216 9.94595C12.2973 9.62162 11.9122 9.45946 11.4662 9.45946C11.0608 9.45946 10.6959 9.62162 10.3716 9.94595C10.0473 10.2703 9.88514 10.6554 9.88514 11.1014C9.88514 11.3851 9.92568 11.6284 10.0068 11.8311C10.1284 11.9932 10.2905 12.2568 10.4932 12.6216L18.0338 24.6014C18.9662 26.1014 19.8784 27.6014 20.7703 29.1014C21.6622 30.5608 22.1081 32.1014 22.1081 33.723V33.9662C22.1081 35.9527 21.6216 37.7568 20.6486 39.3784C19.7162 40.9595 18.4392 42.2365 16.8176 43.2095C15.2365 44.1419 13.4527 44.6081 11.4662 44.6081ZM34.0042 44.6081C32.0583 44.6081 30.2745 44.1419 28.6529 43.2095C27.0312 42.2365 25.734 40.9595 24.761 39.3784C23.8285 37.7568 23.3623 35.9527 23.3623 33.9662V11.4662C23.3623 9.47973 23.8285 7.69594 24.761 6.11486C25.734 4.49324 27.0312 3.21621 28.6529 2.28378C30.2745 1.31081 32.0583 0.824323 34.0042 0.824323C35.9502 0.824323 37.734 1.31081 39.3556 2.28378C40.9772 3.21621 42.2542 4.49324 43.1867 6.11486C44.1596 7.69594 44.6461 9.47973 44.6461 11.4662V33.9662C44.6461 35.9527 44.1596 37.7568 43.1867 39.3784C42.2542 40.9595 40.9772 42.2365 39.3556 43.2095C37.734 44.1419 35.9502 44.6081 34.0042 44.6081ZM34.0042 36.5811C34.4502 36.5811 34.815 36.4392 35.0988 36.1554C35.3826 35.8311 35.5245 35.4662 35.5245 35.0608V10.3108C35.5245 9.86486 35.3826 9.5 35.0988 9.21622C34.815 8.89189 34.4502 8.72973 34.0042 8.72973C33.5583 8.72973 33.1731 8.89189 32.8488 9.21622C32.565 9.5 32.4231 9.86486 32.4231 10.3108V35.0608C32.4231 35.4662 32.565 35.8311 32.8488 36.1554C33.1731 36.4392 33.5583 36.5811 34.0042 36.5811ZM46.5536 44V1.43243H55.6144V36.1554H63.5806V44H46.5536ZM104.538 44V1.43243H114.936L117.673 20.3446H118.038L120.653 1.43243H131.112V44H123.207V25.0878H122.842L120.47 44H115.18L112.808 25.0878H112.443V44H104.538ZM134.793 44L139.962 1.43243H150.908L156.077 44H147.564L147.016 36.1554H143.793L143.368 44H134.793ZM144.28 27.0338H146.591L145.983 13.5946H144.949L144.28 27.0338ZM159.764 44V1.43243H169.068C171.257 1.43243 173.264 1.97973 175.088 3.07432C176.912 4.12838 178.352 5.56757 179.406 7.39189C180.5 9.17567 181.048 11.1824 181.048 13.4122V20.527C181.048 21.5811 180.784 22.9595 180.257 24.6622C179.73 26.3243 178.737 27.8243 177.277 29.1622V30.0743L181.048 44H171.926L169.372 32.2635H168.825V44H159.764ZM168.825 24.4189H169.311C170.041 24.4189 170.649 24.2162 171.135 23.8108C171.662 23.3649 171.926 22.2703 171.926 20.527V13.2297C171.926 11.527 171.662 10.4527 171.135 10.0068C170.649 9.56081 170.041 9.33784 169.311 9.33784H168.825V24.4189Z" fill="white"/>
<path d="M79.4546 47.1014C75.7249 47.1014 72.6438 46.1284 70.2114 44.1824C67.5357 42.0338 66.1978 39.1554 66.1978 35.5473C66.1978 34.3716 66.3397 33.3378 66.6235 32.4459C67.6776 28.6757 69.7654 25.6351 72.887 23.3243C75.8465 21.1757 79.3735 19.8784 83.4681 19.4324C82.2114 18.0946 81.583 16.6149 81.583 14.9932C81.583 12.277 82.8397 10.0878 85.3532 8.42567C87.5424 6.96621 90.056 6.23648 92.8938 6.23648C97.5965 6.23648 99.9478 7.85811 99.9478 11.1014C99.9478 12.3581 99.4614 13.473 98.4884 14.4459C97.5154 15.4189 96.4005 15.9054 95.1438 15.9054C94.4546 15.9054 93.8465 15.7635 93.3195 15.4797C92.6303 15.1149 92.2857 14.6284 92.2857 14.0203C92.2857 13.8986 92.3262 13.7162 92.4073 13.473C92.4073 13.2297 92.4884 13.1081 92.6505 13.1081C92.7722 13.1081 92.833 13.1892 92.833 13.3514C92.833 13.473 92.8127 13.5946 92.7722 13.7162C92.6911 13.8784 92.6505 14 92.6505 14.0811C92.6505 14.8514 93.056 15.2365 93.8668 15.2365C95.083 15.2365 96.1776 14.8716 97.1505 14.1419C98.2046 13.3311 98.7316 12.3176 98.7316 11.1014C98.7316 9.76351 98.1843 8.70946 97.0897 7.93919C96.1573 7.25 94.9816 6.9054 93.5627 6.9054C90.8465 6.9054 88.5357 7.73649 86.6303 9.39865C84.6438 11.1419 83.6505 13.3514 83.6505 16.027C83.6505 17.3649 83.9749 18.4797 84.6235 19.3716C84.8668 19.3716 85.11 19.3716 85.3532 19.3716C85.5965 19.3311 85.8397 19.3108 86.083 19.3108C90.583 19.3108 92.833 19.9392 92.833 21.1959C92.833 22.0068 92.1033 22.4122 90.6438 22.4122C88.3735 22.4122 86.3262 21.7432 84.5019 20.4054C76.6776 21.8243 71.8938 25.8581 70.1505 32.5068C69.8668 33.4797 69.7249 34.5743 69.7249 35.7905C69.7249 38.8716 70.7181 41.4054 72.7046 43.3919C74.6911 45.2568 77.2654 46.1892 80.4276 46.1892C84.2384 46.1892 87.7451 44.973 90.9478 42.5405C94.3938 39.8649 96.1168 36.6824 96.1168 32.9932C96.1168 29.4257 94.0289 27.6419 89.8532 27.6419C88.5965 27.6419 87.3397 27.7838 86.083 28.0676C84.8668 28.3514 83.6303 28.7973 82.3735 29.4054C81.6438 29.7297 80.9749 30.1351 80.3668 30.6216C79.7587 31.0676 79.1911 31.5743 78.6641 32.1419C77.4884 33.5608 76.9005 34.9595 76.9005 36.3378C76.9005 37.5541 77.306 38.5676 78.1168 39.3784C78.9276 40.1892 79.9411 40.5946 81.1573 40.5946C82.4951 40.5946 83.6708 40.2905 84.6843 39.6824C85.9005 38.9932 86.5087 38.0405 86.5087 36.8243C86.5087 36.4595 86.6303 36.277 86.8735 36.277C87.1978 36.277 87.36 36.5811 87.36 37.1892C87.36 38.527 86.6505 39.6216 85.2316 40.473C84.0965 41.1622 82.7789 41.5068 81.2789 41.5068C79.4546 41.5068 77.9749 40.8176 76.8397 39.4392C75.7451 38.1014 75.1978 36.5405 75.1978 34.7568C75.1978 31.1892 76.86 28.6149 80.1843 27.0338C82.0087 26.1824 84.7249 25.7568 88.333 25.7568C90.4411 25.7568 93.5627 25.9392 97.6978 26.3041C101.833 26.6689 104.934 26.8514 107.002 26.8514C113.448 26.8514 116.671 25.4324 116.671 22.5946C116.671 21.0135 115.799 20.0811 114.056 19.7973C113.691 19.7162 113.509 19.5338 113.509 19.25C113.509 18.8851 113.691 18.7027 114.056 18.7027C114.988 18.7027 115.86 19.1081 116.671 19.9189C117.36 20.7297 117.705 21.6216 117.705 22.5946C117.705 22.6757 117.705 22.777 117.705 22.8986C117.705 23.0203 117.684 23.1216 117.644 23.2027C116.995 26.3649 113.468 27.9459 107.063 27.9459C105.684 27.9459 103.738 27.8851 101.225 27.7635C99.8465 27.6824 98.6708 27.6216 97.6978 27.5811C96.7249 27.5405 95.9343 27.5203 95.3262 27.5203C97.3938 28.4932 98.4276 30.3784 98.4276 33.1757C98.4276 37.3514 96.2384 40.8176 91.86 43.5743C88.0087 45.9257 83.8735 47.1014 79.4546 47.1014ZM89.7316 21.8041C90.9884 21.8041 91.6168 21.5405 91.6168 21.0135C91.6168 20.3243 90.7046 19.9797 88.8803 19.9797C88.3127 19.9797 87.7249 20 87.1168 20.0405C86.5492 20.0811 85.9816 20.1419 85.4141 20.223C86.6708 21.277 88.11 21.8041 89.7316 21.8041Z" fill="#8EDAFF"/>
</svg>
